<?xml version="1.0" encoding="UTF-8"?><!DOCTYPE svg PUBLIC "-//W3C//DTD SVG 1.1//EN" "http://www.w3.org/Graphics/SVG/1.1/DTD/svg11.dtd"><svg xmlns="http://www.w3.org/2000/svg" xmlns:xlink="http://www.w3.org/1999/xlink"><symbol id="lexicon-site-bell" viewBox="0 0 32 32">
<path id="bottom" d="M16,26c-1.5,0-2.7,0-3.9-0.1c0.4,1.8,2,3.1,3.9,3.1s3.5-1.3,3.9-3.1C18.7,26,17.5,26,16,26z"/>
<path id="top" d="M25.8,19c-0.6-1-1.3-2.1-1.3-3.1c0-5.8-2.5-9.8-6.5-10.7C17.8,3,17,3,16,3s-1.8,0-2,2.2C10,6.2,7.5,10.1,7.5,15.9
	c0,1-0.7,2.2-1.3,3.1c-0.8,1.3-1.6,2.6-0.9,3.8C6.1,24.2,8.1,25,16,25c7.9,0,9.9-0.8,10.6-2.1C27.3,21.6,26.5,20.3,25.8,19z
	 M24.9,21.9C24.7,22.2,23.7,23,16,23c-7.7,0-8.7-0.8-8.9-1.1c-0.1-0.2,0.5-1.3,0.8-1.8c0.7-1.1,1.6-2.6,1.6-4.2
	C9.5,10.2,11.9,7,16,7s6.5,3.2,6.5,8.9c0,1.6,0.9,3,1.6,4.2C24.4,20.6,25,21.7,24.9,21.9z"/>
</symbol><symbol id="lexicon-site-doc" viewBox="0 0 32 32">
<path id="Paper" d="M25.4,13L18,5.6C17.6,5.2,17.1,5,16.6,5H9C7.3,5,6,6.3,6,8v16c0,1.7,1.3,3,3,3h14c1.7,0,3-1.3,3-3v-9.6
	C26,13.9,25.8,13.4,25.4,13z M18,8.4l4.6,4.6H19c-0.6,0-1-0.4-1-1V8.4z M23,25H9c-0.6,0-1-0.4-1-1V8c0-0.6,0.4-1,1-1h7v5
	c0,1.7,1.3,3,3,3h5v9C24,24.6,23.6,25,23,25z"/>
<path id="Line3" d="M17,23h-6c-0.6,0-1-0.4-1-1v0c0-0.6,0.4-1,1-1h6c0.6,0,1,0.4,1,1v0C18,22.6,17.6,23,17,23z"/>
<path id="Line2" d="M21,19H11c-0.6,0-1-0.4-1-1v0c0-0.6,0.4-1,1-1h10c0.6,0,1,0.4,1,1v0C22,18.6,21.6,19,21,19z"/>
<path id="Line1" d="M14,15h-3c-0.6,0-1-0.4-1-1v0c0-0.6,0.4-1,1-1h3V15z"/>
</symbol><symbol id="lexicon-site-layers" viewBox="0 0 32 32">
<path id="Bottom" d="M25,18.5l-1.6-1l-1.7,1.1l1.1,0.7l-7.3,4.5l-7.3-4.5l1.1-0.7l-1.7-1.1l-1.6,1c-0.5,0.4-0.5,1.2,0,1.6l8.8,5.7
	c0.4,0.3,0.9,0.3,1.2,0l8.8-5.7C25.5,19.7,25.5,18.9,25,18.5z"/>
<path id="Top" d="M14.9,19.3L6,13.5c-0.5-0.4-0.5-1.2,0-1.6l8.8-5.7c0.4-0.3,0.9-0.3,1.2,0l8.8,5.7c0.5,0.4,0.5,1.2,0,1.6l-8.8,5.7
	C15.7,19.6,15.3,19.6,14.9,19.3z M8.2,12.7l7.3,4.5l7.3-4.5l-7.3-4.5L8.2,12.7z"/>
</symbol><symbol id="lexicon-site-resources" viewBox="0 0 32 32">
<path id="Circle" d="M22,15c-2.8,0-5-2.2-5-5s2.2-5,5-5s5,2.2,5,5S24.8,15,22,15z M22,7c-1.7,0-3,1.3-3,3s1.3,3,3,3s3-1.3,3-3
	S23.7,7,22,7z"/>
<path id="Triangle" d="M23,27H6c-0.6,0-1-0.4-1-1V9c0-0.9,1.1-1.3,1.7-0.7l17,17C24.3,25.9,23.9,27,23,27z M7,25h13.6L7,11.4V25z"/>
</symbol></svg>