<?xml version="1.0" encoding="UTF-8"?>
<svg width="156px" height="156px" viewBox="0 0 156 156" version="1.1" xmlns="http://www.w3.org/2000/svg" xmlns:xlink="http://www.w3.org/1999/xlink">
    <!-- Generator: Sketch 47.1 (45422) - http://www.bohemiancoding.com/sketch -->
    <title>Group</title>
    <desc>Created with Sketch.</desc>
    <defs></defs>
    <g id="Page-1" stroke="none" stroke-width="1" fill="none" fill-rule="evenodd">
        <g id="Canvas-Copy-64" transform="translate(-18.000000, -18.000000)" stroke="#0058FF" stroke-width="7">
            <g id="Group" transform="translate(22.000000, 22.000000)">
                <rect id="Rectangle-7-Copy-14" fill="#E1EBFF" transform="translate(74.000000, 40.407895) scale(1, -1) translate(-74.000000, -40.407895) " x="0" y="14.6052632" width="148" height="51.6052632"></rect>
                <rect id="Rectangle-7-Copy-14" fill="#FFFFFF" transform="translate(37.000000, 7.302632) scale(1, -1) translate(-37.000000, -7.302632) " x="14.6052632" y="0" width="44.7894737" height="14.6052632"></rect>
                <rect id="Rectangle-7-Copy-14" fill="#53E6C1" transform="translate(111.000000, 7.302632) scale(1, -1) translate(-111.000000, -7.302632) " x="88.6052632" y="0" width="44.7894737" height="14.6052632"></rect>
                <rect id="Rectangle-7-Copy-14" fill="#E1EBFF" transform="translate(74.000000, 122.197368) scale(1, -1) translate(-74.000000, -122.197368) " x="0" y="96.3947368" width="148" height="51.6052632"></rect>
                <rect id="Rectangle-7-Copy-14" fill="#53E6C1" transform="translate(37.000000, 89.092105) scale(1, -1) translate(-37.000000, -89.092105) " x="14.6052632" y="81.7894737" width="44.7894737" height="14.6052632"></rect>
                <rect id="Rectangle-7-Copy-14" fill="#FFFFFF" transform="translate(111.000000, 89.092105) scale(1, -1) translate(-111.000000, -89.092105) " x="88.6052632" y="81.7894737" width="44.7894737" height="14.6052632"></rect>
                <path d="M37,50.6315789 L14.6052632,50.6315789" id="Line-Copy-4" fill="#FFFFFF" stroke-linecap="square"></path>
                <path d="M37,134.368421 L14.6052632,134.368421" id="Line-Copy-3" fill="#FFFFFF" stroke-linecap="square"></path>
            </g>
        </g>
    </g>
</svg>